<svg width="39" height="39" viewBox="0 0 39 39" fill="none" xmlns="http://www.w3.org/2000/svg">
<circle cx="19.5" cy="19.5" r="19.5" fill="#013D91"/>
<path d="M23.5898 10.75L24.478 10.9899C25.5642 11.2838 26.5544 11.8572 27.3497 12.6531C28.1451 13.4489 28.7179 14.4393 29.0109 15.5255L29.25 16.4126L27.4754 16.8915L27.2355 16.0044C27.026 15.2285 26.6168 14.5211 26.0486 13.9527C25.4804 13.3843 24.773 12.9748 23.9971 12.765L23.1098 12.5241L23.5898 10.75ZM9.75002 10.9458H17.639L19.0063 17.0956L17.2961 18.8054C18.3012 20.3703 19.6318 21.7003 21.1973 22.7048L22.9075 20.9959L29.0588 22.3628V30.25H28.1393C24.5997 30.2555 21.1345 29.235 18.1631 27.3121C15.9723 25.8945 14.1065 24.0292 12.6886 21.8389C10.7653 18.8682 9.74457 15.4038 9.75002 11.865V10.9458ZM11.6138 12.7843C11.7685 15.6523 12.6716 18.4298 14.2333 20.8406C15.5099 22.8123 17.1895 24.4915 19.1616 25.7677C21.5729 27.3292 24.3511 28.2321 27.2198 28.3867V23.8373L23.4932 23.01L21.4943 25.0094L20.8847 24.6628C18.5702 23.3477 16.654 21.4319 15.3385 19.1179L14.9919 18.5084L16.9917 16.51L16.1642 12.7843H11.6138ZM22.7494 13.8552L23.6376 14.0951C24.1807 14.2421 24.6758 14.5288 25.0735 14.9267C25.4712 15.3246 25.7575 15.8198 25.9041 16.3629L26.1431 17.25L24.3686 17.7289L24.1286 16.8418C24.0657 16.6091 23.9429 16.3969 23.7723 16.2264C23.6018 16.0559 23.3895 15.9331 23.1567 15.8702L22.2694 15.6303L22.7494 13.8552Z" fill="#F8F8F8"/>
</svg>
