<svg width="50" height="50" viewBox="0 0 50 50" fill="none" xmlns="http://www.w3.org/2000/svg">
<circle cx="25" cy="25" r="25" fill="#25D366"/>
<path d="M13.5313 24.3914C13.5307 26.4988 14.0814 28.5566 15.1284 30.3704L13.4312 36.5674L19.773 34.9045C21.5271 35.8594 23.4925 36.3598 25.4896 36.3599H25.4949C32.0879 36.3599 37.4548 30.995 37.4576 24.4008C37.4588 21.2055 36.2156 18.2008 33.9568 15.9402C31.6983 13.6798 28.6947 12.4343 25.4944 12.4329C18.9006 12.4329 13.5341 17.7975 13.5314 24.3914" fill="url(#paint0_linear_912_4424)"/>
<path d="M13.104 24.3875C13.1033 26.5708 13.6737 28.7021 14.7581 30.5808L13 37L19.5693 35.2775C21.3794 36.2644 23.4173 36.7848 25.491 36.7855H25.4964C32.3259 36.7855 37.8856 31.2276 37.8885 24.3974C37.8897 21.0872 36.6017 17.9745 34.2622 15.6329C31.9224 13.2917 28.8113 12.0014 25.4964 12C18.6656 12 13.1067 17.5571 13.104 24.3875ZM17.0163 30.2573L16.771 29.8679C15.7399 28.2284 15.1956 26.3337 15.1964 24.3882C15.1985 18.711 19.8189 14.0922 25.5003 14.0922C28.2516 14.0934 30.8373 15.1659 32.7821 17.1119C34.7268 19.058 35.7969 21.6451 35.7962 24.3966C35.7937 30.0738 31.1733 34.6932 25.4964 34.6932H25.4923C23.6438 34.6923 21.8309 34.1959 20.2499 33.2578L19.8737 33.0347L15.9753 34.0567L17.0163 30.2573Z" fill="url(#paint1_linear_912_4424)"/>
<path d="M22.3992 19.2087C22.1673 18.6932 21.9231 18.6827 21.7026 18.6737C21.5219 18.6659 21.3154 18.6665 21.1091 18.6665C20.9026 18.6665 20.5671 18.7442 20.2835 19.0538C19.9996 19.3638 19.1997 20.1128 19.1997 21.6361C19.1997 23.1596 20.3093 24.6318 20.464 24.8386C20.6188 25.045 22.606 28.2711 25.7533 29.5123C28.3689 30.5437 28.9012 30.3385 29.4688 30.2868C30.0366 30.2353 31.3009 29.538 31.5588 28.815C31.8169 28.0921 31.8169 27.4724 31.7395 27.3429C31.6621 27.2139 31.4556 27.1364 31.146 26.9816C30.8362 26.8267 29.314 26.0776 29.0302 25.9743C28.7463 25.8711 28.5399 25.8195 28.3334 26.1296C28.1269 26.4391 27.5339 27.1364 27.3532 27.3429C27.1727 27.5499 26.9919 27.5756 26.6824 27.4207C26.3725 27.2654 25.3754 26.9388 24.1923 25.8841C23.2718 25.0633 22.6504 24.0498 22.4697 23.7398C22.2891 23.4302 22.4504 23.2624 22.6056 23.1081C22.7448 22.9694 22.9154 22.7466 23.0704 22.5658C23.2247 22.385 23.2763 22.256 23.3795 22.0495C23.4829 21.8428 23.4311 21.662 23.3538 21.5071C23.2763 21.3522 22.6746 19.8209 22.3992 19.2087Z" fill="white"/>
<defs>
<linearGradient id="paint0_linear_912_4424" x1="1214.75" y1="2425.89" x2="1214.75" y2="12.4329" gradientUnits="userSpaceOnUse">
<stop stop-color="#1FAF38"/>
<stop offset="1" stop-color="#60D669"/>
</linearGradient>
<linearGradient id="paint1_linear_912_4424" x1="1257.43" y1="2512" x2="1257.43" y2="12" gradientUnits="userSpaceOnUse">
<stop stop-color="#F9F9F9"/>
<stop offset="1" stop-color="white"/>
</linearGradient>
</defs>
</svg>
